<?xml version='1.0' encoding='utf-8'?>
<svg xmlns="http://www.w3.org/2000/svg" version="1.1" id="Layer_1" x="0px" y="0px" viewBox="0 0 5000 442.0774" enable-background="new 0 0 5000 442.0774"> <g> <path d="M2574.4377,397.3331l-23.2849-20.2464c-43.3835-37.7212-28.3994-97.8479-51.5332-97.8479 c-4.9956,0-12.041,17.5006-15.6553,38.8895c-4.3479,25.7379-14.4023,44.0225-29.7332,54.0663 c-57.6865,37.8321,14.7842,36.7756,29.4546,60.5134h-0.0247C2496.2693,453.1077,2512.0059,439.6985,2574.4377,397.3331z"/> <path d="M2336.1272,396.2641c65.24,1.1771,116.8945-53.4291,121.2673-111.8966c1.6201-21.6603-17.5146-32.1921-25.4714-1.27 c-20.0618,77.9656-116.4165,99.9538-164.0313,43.3766c-41.9119-49.8011-12.9399-127.6608,42.7563-131.1776 c21.2622-1.3426,43.5276,11.7732,49.7983,32.134c6.271,20.3607-7.0425,45.4474-28.0449,49.0227 c-11.071,1.8846-23.8074-1.4234-32.7124,5.4191c-10.7634,8.2707-7.146,27.1189,4.2119,34.5523 c30.7034,20.0945,94.7944-21.6995,89.6384-82.0079c-2.9434-34.428-30.0708-65.4053-63.8093-72.8654 c-96.2112-21.2737-138.4583,113.502-94.5876,180.3181C2257.0146,375.1806,2296.4712,395.5486,2336.1272,396.2641z"/> <path d="M2659.5398,363.3466c-66.072-4.6849-84.3496-64.2879-93.5894-76.6676c-4.1753-5.5941-14.926-17.0208-23.0254-13.1258 c-20.2839,9.7544,26.8389,137.8597,139.7112,122.5912c90.8301-12.2868,137.3428-115.1612,87.5447-189.6048 c-45.5037-68.0239-131.3708-49.5931-144.8977,13.9669c-11.5476,54.2598,43.7861,98.9451,76.3694,82.3466 c11.5576-5.8877,18.0107-22.0319,10.5728-32.6585c-8.498-12.1413-27.509-10.2926-39.2424-19.3455 c-24.4412-18.8573-2.011-61.7407,36.7515-51.7422c39.8511,10.2793,65.0425,72.1626,35.7937,120.3144 C2727.8579,348.5116,2693.1816,365.7319,2659.5398,363.3466z"/> <path d="M2068.7175,304.7307c21.6184,9.405,26.8577,36.0831,16.1799,52.3867c-10.1875,15.5555-33.6099,20.4396-49.1654,10.2525 C1999.6708,343.7539,2032.7009,289.0616,2068.7175,304.7307z"/> <path d="M2987.5071,363.7946c-16.6042,19.5846-45.0024,16.0597-58.7695-0.0431c-23.8347-27.8783,2.9299-71.6008,38.5977-63.0566 C2994.073,307.0999,3007.4341,340.2907,2987.5071,363.7946z"/> <path d="M1734.0211,329.7954c5.7607-9.2681,11.1288-52.362,11.9375-95.7639c1.2976-70.0401-1.072-81.8576-21.0833-105.1225 c-25.4792-29.6226-62.2813-26.9579-49.3788,3.5744c19.9501,47.2208,26.597,112.7156,15.6058,153.8089 c-6.2415,23.3553-8.8684,46.4885-5.8276,51.4088l0,0C1694.3818,352.4373,1722.8148,347.8262,1734.0211,329.7954z"/> <path d="M2184.3733,108.742c-36.094,32.2938-73.7405,66.9419-88.021,113.2207c-23.0781,74.7896,52.8086,99.7387,69.4487,39.7052 c4.2085-15.1827,3.6089-31.2402,5.7939-46.843c7.2744-51.9407,48.5222-97.4453,99.5015-109.7694 c50.979-12.3241,108.4585,9.3132,138.656,52.1951c3.9927,5.6699,7.6821,11.8076,13.3489,15.805 c14.4863,10.2189,32.0117-1.3706,18.2256-25.705c-46.425-81.9459-164.0588-119.0167-287.2942-56.8526 c-103.0544,51.9842-145.9565,131.0672-204.5187,171.2308c-90.8148,62.2834-167.2786,1.1684-156.3975-55.1138 c6.4447-33.3354,38.9731-44.5277,57.0242-29.0177c9.1511,7.8629,12.3228,21.0238,21.3929,28.98 c14.8446,13.0214,41.17,4.7395,49.1595-13.3184c7.9895-18.0578-0.4282-40.5411-16.1652-52.4686 c-30.1448-22.8477-82.6157-15.1169-107.2906,12.2364c-46.4553,51.4978-22.8457,164.622,53.3018,187.5992 c45.6062,13.7614,95.327-8.3873,130.196-40.8443C2046.5576,238.5126,2086.7383,124.366,2184.3733,108.742z"/> <path d="M3330.1851,309.743c-12.6392-19.2896-14.7725-40.6879-10.8713-109.0941c4.8086-84.3271,4.6487-85.097-17.8274-85.097 c-29.1453,0-35.9041,25.9118-31.1765,119.5388c2.6682,52.8086,8.3301,76.5589,21.8027,91.4466h-0.0012 C3324.4607,362.2825,3355.6079,348.5432,3330.1851,309.743z"/> <path d="M3204.6387,147.8667c-46.3176-44.5599-114.8162-15.1581-111.7473,35.8636c1.4087,23.4192,19.6248,33.8238,32.7629,27.5151 c9.1106-4.3748,12.6042-15.3291,19.1211-23.054c14.1023-16.7169,43.45-14.8593,57.6748,1.7536 c27.73,32.3852-0.0818,87.984-57.4265,86.6796c-45.3909-1.0325-80.1697-34.9127-110.5164-64.4973 c-84.1887-82.0754-183.5452-169.9054-308.3569-161.7472c-53.3765,3.4889-105.366,28.3397-136.6843,69.0023 c-8.0759,10.4852-23.2922,27.825-27.2798,40.0853c-5.2771,16.2258,12.7424,36.6819,33.6145,1.5867 c56.261-94.5989,199.6892-76.6154,230.9202,28.8594c4.7034,15.8846,6.2776,32.6091,11.6064,48.2949 c36.2229,106.6235,200.4607-28.3004-30.9675-145.6585c159.0562,22.955,228.6956,237.9845,333.5334,241.7328 C3232.1836,337.547,3266.4858,207.367,3204.6387,147.8667z"/> <path d="M4799.332,116.4451c-5.9312,11.0806-33.8647,30.356-62.0752,42.8318c-86.6006,38.2982-204.4668,44.7595-722.9949,39.6323 c-476.2251-4.7099-599.5769-12.8613-631.7056-41.7504c-25.6108-23.0274-36.7148-6.507-36.7148,54.6246 c0,83.3727,26.9014,138.4816,42.9363,87.9592c6.7761-21.3501,93.3191-44.8641,217.7827-59.1711 c112.343-12.913,1000.2412-11.3897,1062.6152,1.8242c100.1968,21.2262,131.7603,65.4447,128.1841,69.021 c15.4717,33.9575,50.5942,24.5919,50.5942-13.4901c0-30.349-29.832-57.1964-63.5518-57.1964 c-34.3481,0-66.5947-48.1446-5.4258-48.1446c33.3838,0,68.9775-24.7176,68.9775-47.9025 C4847.9541,96.7653,4818.8955,79.89,4799.332,116.4451z"/> <path d="M223.2423,240.7232c-49.9254,0-82.2867,45.8397-53.0202,75.1061c0.9633,0,30.2812,32.4977,60.3689-13.4184 c9.0001-13.7358,36.5798-34.3172,61.288-45.7374c43.3502-20.0372,58.9067-20.8705,443.5454-23.7608 c576.6213-4.3337,821.9874,12.9718,877.9695,61.9204c34.3877,30.0681,47.0327,7.3639,47.2549-84.8361 c0.1481-61.5807-8.631-72.8575-40.5198-52.0482c-48.9075,31.917-146.4708,36.9806-680.345,35.3057 c-287.9827-0.9039-544.4763-5.602-569.9885-10.44c-65.1657-12.3582-104.9109-30.7451-142.337-65.8474 c-39.0058-36.5857-46.7236-37.3803-60.8966-6.2743c-14.6303,32.1109,8.5522,58.1779,58.8996,66.2282 C287.396,186.8237,285.5201,240.7232,223.2423,240.7232z"/> <path d="M48.597,240.7232c3.5397,0,19.3756,0.7795,33.0407,14.4446c15.7916,19.0275,18.106,18.5044,39.7287-8.9848 c10.1355-12.8848,27.7513-24.7999,39.1469-26.4795c30.2326-4.4524,33.961-27.1237,4.4607-27.1237 c-23.8619,0-49.1602-17.8333-56.4888-39.8204c-6.0113-18.0262-31.5651,13.7948-76.3379,24.1475 C-19.1111,188.7573-5.7162,240.7232,48.597,240.7232z"/> <path d="M4968.2227,244.0648c47.3867-14.0778,41.5986-37.365-16.1772-65.0846c-50.1685-24.0711-51.4048-24.1828-65.5757-5.9617 c-7.9434,10.2143-26.6196,23.1191-41.5015,28.6764c-30.2559,11.2992-26.5298,29.3993,6.0537,29.3993 c17.3936,0,34.4517,18.0204,33.2134,19.259C4905.3564,284.1696,4898.6289,264.7368,4968.2227,244.0648z"/> <path d="M2518.687,204.1633c-70.4434-2.8257-96.1106,5.3575-83.0554,26.4819c-0.9634,0.9633,5.925,10.8885,80.5259,8.0621 c57.95-2.198,73.8132-5.9029,73.8132-17.242C2589.9707,210.1849,2574.3613,206.3966,2518.687,204.1633z"/> <path d="M2599.6008,52.9591c50.4473-16.8154,58.406-25.1607,38.1338-39.985C2627.9763,5.8382,2608.166,0,2593.7109,0 c-21.4736,0-27.4624,5.3775-32.7375,29.3969c-7.4155,33.7635-25.6731,33.1006-33.7178-1.2236 c-3.4063-14.5315-13.5125-24.5213-26.7451-26.4361c-17.9907-2.6012-21.27,1.4822-21.27,26.4795 c0,35.7735-16.2537,38.7108-28.981,5.2376c-12.3865-32.5787-30.7004-37.9433-66.4397-19.4612 c-36.3,18.7724-38.4441,34.1514-4.7629,34.1514c48.917,0,109.8113,55.9987,109.8113,100.9838 c0,25.3664,15.0464,13.7616,49.782-38.3958C2558.8176,80.4507,2581.4326,59.016,2599.6008,52.9591z"/> </g> </svg>