<?xml version='1.0' encoding='utf-8'?>
<svg xmlns="http://www.w3.org/2000/svg" version="1.1" id="Layer_1" x="0px" y="0px" viewBox="0 0 5000 4224.3594" enable-background="new 0 0 5000 4224.3594"> <g> <path d="M4801.9443,118.8619c-176.7212-114.221-242.7222-115.3515-957.4163-16.4095 c-198.0154,27.4134-1046.0769,8.3033-1296.6082-29.2191c-393.1404-58.8803-504.5436-120.9408-723.5594,122.6579 c-127.5168,141.8358-195.2388,274.766-223.6797,274.766c-27.1058,0-14.6693-23.8841-530.1909-449.9875 C507.855-3.779,488.2952-7.7619,204.7772,15.3208C100.1487,23.8394,14.5419,38.4274,14.5419,47.7411 c0,9.316,56.3742,43.5533,125.2769,76.0892l125.2769,59.154c-193.2148,7.8305-345.8426,4.6639-218.0747,72.573 c141.4332,75.1799,184.1622,210.4287,558.1231,337.3048c98.7902,33.5168,179.6189,67.7541,179.6189,76.0846 c0,66.3898-338.8344-41.9654-355.9912-24.8012c-17.5242,17.522,14.1938,49.2648,85.6589,85.7224 c84.9385,43.3312,186.8143,126.6227,186.8143,152.7333c0,10.3922-13.3034,13.7905-29.5657,7.5511 c-141.6706-54.3646-168.282-3.0653-30.7528,59.2855c123.8707,56.1617,249.3635,182.0625,302.415,198.9034 c47.3572,15.0275,46.7999,46.136-0.8179,46.136c-49.5616,0-47.1103,26.5819,4.6398,50.2935 c60.6516,27.7917,448.8365,318.2604,456.9065,341.8926c6.278,18.3873-24.7083,13.6296-103.2103-15.8409 c-12.6736-4.7577-47.1736,41.9539-80.7063,109.2639c-68.6422,137.7897-207.2861,349.1039-260.8577,397.587 c-48.0731,43.5034-74.356,27.8416-183.8079-109.5131c-72.1244-90.514-92.2087-104.8619-147.2462-105.1768 c-52.5771-0.3014-79.7073,16.2079-155.0171,94.3428c-107.6825,111.7198-184.2271,267.6908-194.984,397.3197 c-12.6328,152.2078,4.9979,163.6377,413.7338,268.23c193.9464,49.6272,394.3881,104.2751,445.4269,121.4368 c244.6204,82.2561,724.9257,379.1135,860.3817,531.7676c93.9963,105.9268,196.6448,164.0977,289.5715,164.0977 c113.4529,0,86.9163,57.593-121.8809,264.5007c-254.8176,252.5112-284.5736,335.447-162.4073,452.647 c54.6207,52.3984,58.7892,53.1914,327.9298,62.353c-1.1191,1.8652,342.4211,7.8682,605.9719,2.5015 c364.0635-7.4155,395.3828-15.7119,448.7234-118.8564c51.1045-98.8264,23.1858-155.0261-191.5676-385.5977 c-205.895-221.0652-302.8523-353.0574-302.8523-412.2839c0-19.0784,25.7368-56.3423,57.1943-82.811 c49.437-41.5981,55.6174-56.5442,45.5583-110.1611c-6.6699-35.5513-3.9829-62.0313,6.2893-62.0313 c33.1089,0,47.7913,201.1079,96.5359,363.2297c9.4248,31.3486,17.1367,69.3809,17.1367,84.5171s29.4661,56.0796,65.4795,90.9854 c100.4009,97.3184,210.5608,306.2356,235.3882,281.3972c22.4778-22.4778-34.9475-231.8523-77.9402-439.6587 c-35.4753-171.4944-42.6428-189.5073-170.1011-598.2283c280.6626-392.061,421.8633-571.0571,568.7803-1100.0155 c123.3704-444.1936,207.0962-730.3641,223.1472-831.788c6.9756-44.0925,23.4304-84.2928,36.5618-89.3337 c13.1357-5.0386,122.1641,41.4758,242.2866,103.3712c162.9014,83.9303,237.7285,112.4628,294.4268,112.4628 c178.2505-0.1631,367.4937-197.0615,445.8823-463.9207C5035.1938,368.4008,4982.6621,235.6656,4801.9443,118.8619z M1225.5568,1371.4297c-73.452-48.3835-109.1573-99.735-54.863-78.9008c61.951,23.7668,440.6638,57.8719,732.6536,137.8485 c286.1219,78.3668,20.9404-103.8124-404.0372-153.4333c-236.4031-27.6014-354.6342-67.0677-532.9027-177.879 c-153.6464-95.505-143.7957-87.8089-130.0165-101.5858c12.7755-12.7778,372.6454,73.1508,484.7231,115.7366 c50.9028,19.3412,78.1803,21.6702,92.0024,7.848c81.1978-81.1929-391.7651-128.7036-554.1107-209.9979 c-94.1434-47.1465-231.9943-141.1858-231.9943-158.2637c0-7.166,39.6724-13.4575,88.1578-13.9967 c190.9761-2.0969,205.9798-23.4347,419.7331-1.2982c117.66,12.1843,144.3938,10.3627,137.8077-9.3907 c-22.3727-67.1182-421.8637-78.5287-797.2335-255.8825c-142.2393-67.2036-299.4313-181.7463-283.903-206.8714 c16.2623-26.3146,223.9561-20.2882,370.475,10.7479c151.5621,32.1031,176.3225,33.5712,176.3225,10.4488 c0-18.3806-119.6017-59.6411-269.1134-92.843c-107.5352-23.8791-269.1134-93.5136-269.1134-115.9745 c0-18.5867,435.5286-18.0815,566.4695,0.6502c83.3616,11.926,117.6487,33.8295,324.7717,207.4401 c230.3087,193.0469,797.6798,749.6656,797.6798,782.5616c0,19.2551-57.8263,4.5358-133.6368-34.0198 c-134.2716-68.2863-120.3707,30.191-80.797,30.191c47.2054,0,313.6975,147.4613,376.506,208.3395 c66.3518,64.3082,79.1069,100.1858,28.1633,79.2111c-136.5414-56.2109-128.0228-14.7533,15.1226,73.6016 c96.5132,59.5732,277.1765,249.6975,277.1765,291.7578c0.0068,6.9349,33.4194,62.9012,74.252,124.3752 c103.9392,156.4913,26.9377,46.9135,167.0222,282.3964c122.4114,205.7742,82.5791,178.9502,129.9304,239.4844 c22.1101,28.2688,39.7307,65.0623,36.7021,69.6052c0.6616,37.2188-126.2373,25.9226-257.8896-22.9548 c-263.9133-97.9851-337.9253-354.8542-631.446-474.306c-136.8811-55.7036-372.301-208.3622-372.301-241.4192 c0-9.692,2.0867-17.5649,4.6399-17.3792c66.4552,3.5411,477.9083,124.2135,477.9083,46.9969 c0-27.5923-13.1403-31.1176-248.0073-66.533C1483.8326,1617.2405,1425.7947,1503.339,1225.5568,1371.4297z M1902.9847,3068.7446 c-12.7596-0.1338-83.7355-40.7803-157.7244-90.3262c-175.3008-117.3857-524.7716-291.3455-654.2557-325.6687 c-210.5033-55.803-402.6022-111.9531-566.0662-139.7222c-204.2547-34.6951-231.8222-86.2776-155.3411-290.6885 c38.3878-102.6008,205.0793-304.0417,251.5938-304.0417c58.0134,0,262.2173,426.5496,896.5131,616.7471 c237.3845,71.1843,717.7882,21.0039,558.2772,106.3684c-69.6096,37.2549-149.0723,222.5696-149.5164,348.6982 C1926.4651,2972.4631,1930.3788,3069.0857,1902.9847,3068.7446z M2139.6189,2679.0576c0-14.561,33.4082-45.8823,74.2383-69.6006 c146.5596-85.1401,338.6572-21.4211,383.1531,127.0894c19.0898,63.7258,17.2229,85.8855-13.4551,159.5549 c-78.9824,189.6836-264.2507,200.373-329.7515,95.4531c-27.0193-43.2793,11.8943-122.6514,71.1841-145.1914 c25.6462-9.751,46.6255-24.9688,46.6255-33.8203C2371.6133,2788.0728,2139.6189,2717.3716,2139.6189,2679.0576z M2169.8826,2782.5713c74.9097,38.7383,39.6587,43.1626,21.405,151.8613c2.1704,0-12.9871,60.1572-30.8979,59.2263 c-25.4468-1.3367-159.9695-88.0308-159.9695-103.0901c0-5.9653,13.4801-39.2488,29.953-73.9685 C2063.8311,2746.0979,2087.9641,2740.2119,2169.8826,2782.5713z M2238.8191,3357.283 c-160.042-59.6819-256.954-175.2734-256.954-306.4839c0-69.9587,21.3054-96.6494,45.6716-57.2239 c29.9664,48.4839,286.1281,131.1641,327.4496,209.6038c37.9429,72.0261,69.2546,46.1643,43.4197,119.9097l0.0022,0.0024 C2377.0461,3384.0757,2334.8884,3393.1062,2238.8191,3357.283z M3058.5522,3662.8923 c282.5164,299.2683,319.7261,368.1348,239.3708,442.9983l-0.009-0.0024c-41.3738,38.5532-56.6255,39.4824-600.3804,39.4824 c-523.46-0.0659-561.6528-2.3428-618.2422-36.8477c-244.9769-149.3638,319.4888-379.0771,382.1472-748.9631 c14.9312-88.1143,15.3884-77.3335,151.4397-88.6584c-0.3477,182.885,6.7566,232.8123-57.7041,410.5505 c-125.5442,346.1587-117.821,312.481-80.9895,353.1797c30.6848,33.9065,58.4019,36.5708,380.5793,36.5708 c286.1392,0,351.5576-4.9116,370.5725-27.8235c68.4451-82.4685-171.8882-270.657-335.9841-476.2476 c-82.0657-102.8137-140.7778-293.9893-90.2898-293.9893C2845.6194,3273.1421,2815.5806,3405.5181,3058.5522,3662.8923z M2849.5217,3200.4126c-119.0586,2.9761-110.7087,10.6016-292.313-1.5066c-107.2317-7.1501-139.1965-15.6709-139.1965-37.1191 c0-23.0859,41.999-28.7251,245.9141-33.0183c236.4165-4.9797,245.9138-3.7246,245.9138,32.4792 C2909.8401,3191.0513,2897.2617,3199.2256,2849.5217,3200.4126z M2945.3599,3001.8582 c-43.3889,55.1563-44.6047,48.5806-368.4724,48.5806c80.0313-117.937,86.3892-139.3542,150.6243-132.6174 c83.7517,8.7844,36.0781-34.4185-1.7764-34.4185c-26.4006,0-35.814-20.0322-44.7087-95.1448 c-20.3848-172.0876-89.4609-158.5664-33.8567-198.4187c55.5811-39.8289-22.6951,6.0605-121.6565-46.2788 c-96.9663-51.2944-127.2944-29.9355-196.9143-59.2151c-19.4929-8.1992-52.7832-3.9897-78.8779,9.9753 c-37.2595,19.9414-53.3135,19.7874-91.9187-0.8723c-35.9365-19.2302-51.8499-19.9575-68.6694-3.1355 c-26.6748,26.6748-88.7107,29.0061-88.7107,3.3372c0-24.6919-61.6321-24.6467-46.3988,0 c19.579,31.6794-231.7361,20.082-367.3553-16.9509c-69.3423-18.938-140.991-47.9238-159.2174-64.4194 c-18.2242-16.4956-55.5972-29.9893-83.0491-29.9893c-42.7399,0-130.5217-45.6558-322.9954-167.9851 c-22.9683-14.5972-41.759-33.1091-41.759-41.136s49.0519-79.0957,109.0056-157.9307 c125.5435-165.0872,176.5447-277.7141,227.0872-378.2753c45.1399,29.0377,87.8151,54.2065,190.2897,139.1943 c83.3549,69.1316,87.2426,75.9396,51.0387,89.3314c-61.8274,22.8708-45.7236,40.1685,26.4868,28.4509 c104.0223-16.8833,136.3734,53.296,217.9636,86.5629c16.593,6.765,15.3402,14.246-4.7305,28.1837 c-23.5211,16.337-22.8414,20.6892,4.8778,31.3284c17.7076,6.7944,42.7671,3.5773,55.6899-7.1456 c43.1478-35.8096,165.1804,42.8282,335.3359,216.0968c184.1545,187.5256,283.5498,239.1716,504.2478,262.0154 c66.1003,6.8398,127.572,20.3562,136.605,30.03c24.623,26.3838,130.8457,375.8547,143.8455,400.521 C2983.4841,2953.0994,2945.3599,3000.0015,2945.3599,3001.8582z M3230.8533,3273.1421 c13.3455,51.4702,80.7361,321.2129,68.7373,297.2153c0,57.8904-106.4268-35.6746-146.3853-204.4224 c-81.6396-344.7766-200.3262-703.6089-311.9124-943.041c-80.2261-172.1401-300.2332-555.1573-448.0481-780.0198 C1718.0284,615.7269,932.5693,139.1133,979.2486,92.434c57.2691-57.2668,688.57,517.524,1095.4121,997.3581 c356.0046,419.8708,769.9739,1108.1837,927.1572,1505.9264c24.2053,61.2476,49.9556,119.7083,57.2258,129.9167 C3074.0645,2746.73,3190.9067,3119.072,3230.8533,3273.1421z M3930.9277,764.4949 c-121.4414,508.2139-191.3879,744.6991-288.8735,1079.5643c-61.3494,210.7343-195.9016,505.5255-284.9226,624.2369 c-147.8992,197.199-205.4744,325.7727-236.8767,234.1489c-54.1187-157.8711-142.052-287.3325-80.5002-293.26 c80.8967-7.7891,81.7939-8.2036,61.3857-28.6118c-14.6672-14.665-31.5459-14.248-60.9824,1.5044 c-22.386,11.9849-45.1914,17.2908-50.6831,11.7991c-16.4116-16.4072,11.448-70.5115,30.3066-58.855 c20.5244,12.6858,64.0798-26.967-16.0515-26.967c-62.199,0-80.8809-47.074-24.2937-61.2158 c17.864-4.4246,9.8325-6.5383-17.8459-4.6104c-27.6807,1.9302-54.2468-6.7107-59.0408-19.1985 c-11.3823-29.6609,5.1067-44.8945,48.5964-44.8945c44.8594,0,27.8989-41.2231-31.1401-26.4028 c-56.8689,14.2646-81.7034-29.2781-29.8218-29.2781c49.9341,0,57.2859-37.1191-16.106-37.1191 c-42.4297,0-60.7285-12.8479-83.5972-58.6918c-16.1038-32.2798-27.1553-60.2777-24.5588-62.2216 c43.0662-32.2339,107.5564-52.7512,28.8589-40.726c-44.02,6.7288-58.0984-5.2991-115.9973-99.105 c-75.9917-123.1179-80.5818-147.5657-27.6853-147.5657c49.0381,0,37.6143-33.4927-32.7554-23.7545 c-58.6741,8.1189-62.5078-11.7581-136.4827-143.2814c32.8892,0,99.2786,5.1445,83.4705-20.4287 c-18.7383-30.3219-119.4817,9.6724-119.4817-15.399c0-22.9689-123.8098-159.3456-148.4673-205.4305 c-14.3772-26.8651-9.6558-30.2861,31.0588-22.5016c35.3428,6.7559,45.7373,2.363,39.3914-16.6475 c-5.3398-15.9994-29.2168-23.8134-62.7405-20.5328c-43.3901,4.2434-64.8223-8.2512-108.1218-63.0394 c-51.5962-65.2915-52.4707-69.4534-19.6494-93.4525c32.2527-23.5756,31.521-25.1161-11.9553-25.1161 c-28.4512,0-70.3008-24.7536-108.53-64.1972c-52.3662-54.0293-58.4607-68.7306-38.4874-92.7977 c20.2543-24.407,17.2184-28.6005-20.7028-28.6005c-56.1752,0-206.0898-162.4914-355.5471-312.7302 c300.8859-417.9008,342.6481-499.2643,675.6858-430.8774c508.217,104.3635,1286.5535,116.9442,1826.5701,29.5272 c90.8584-14.7081,169.1362-22.803,173.9507-17.9886c4.8164,4.8143-19.8965,35.9704-54.9131,69.2358 C4089.7668,343.9508,3989.0261,521.3652,3930.9277,764.4949z M4065.1719,748.4614c-55.4883-22.3022-52.8511-76.6397,9.8733-203.575 c49.2444-99.6511,52.6521-102.3517,143.2429-113.5141c51.0391-6.2802,99.0825-5.8406,106.7627,0.9832 s-7.8818,41.2017-34.5815,76.3927c-49.5146,65.2603-94.2046,163.2712-94.2046,161.415 C4149.4238,770.1248,4137.2124,777.4199,4065.1719,748.4614z M4904.7964,601.9085 c-50.6914,148.5988-230.354,326.9449-230.354,309.0984c-63.8892,43.0572-153.1387,52.1897-242.7192,24.842 c-61.6328-18.8156-199.2388-89.5897-210.9111-108.4777c-10.6348-17.2025,50.5405-161.7957,74.4194-175.9056 c8.7178-5.1496,71.123,7.2634,138.6777,27.5856c118.75,35.7235,125.1343,35.8527,192.4263,3.9194 c121.2036-57.5137,173.479-192.6006,109.7466-283.5927c-48.9771-69.9245-104.3638-79.671-326.5527-57.4571 c-112.0459,11.1987-208.7451,15.3424-214.8848,9.2028c-18.8765-18.8767,148.3291-176.0687,228.6436-214.9482 c41.707-20.1885,102.5195-36.709,135.1323-36.709c88.3008,0,214.624,67.0971,299.3247,158.9863 c66.1953,71.8163,75.0854,92.0999,75.0854,171.3632C4932.8306,479.2642,4920.2158,556.7059,4904.7964,601.9085z M4476.1235,489.2168c-52.9033,0-73.1006-30.3813-43.7256-65.7718c14.5156-17.4902,57.4141-27.026,121.582-27.026 c79.0342,0,103.0493,7.2861,118.3647,35.9002c31.0698,58.0552,22.3159,111.1579-26.3442,159.8201v-0.0023 c-59.334,59.334-164.1841,74.361-122.7983-34.4979C4543.7236,503.6666,4533.7822,489.2168,4476.1235,489.2168z M4450.2827,573.9854 c0,14.6243-15.6826,26.5887-34.8491,26.5887c-43.8345,0-86.7441-47.1601-58.6851-64.5031 C4386.3208,517.7925,4450.2827,543.7196,4450.2827,573.9854z"/> <path d="M2761.3616,2753.4792c-21.6204,0-34.1489,8.3508-27.8394,18.5596c6.3096,10.2085,18.8359,18.5596,27.8394,18.5596 C2779.8364,2790.5984,2816.0044,2753.4792,2761.3616,2753.4792z"/> <path d="M2750.9875,2660.6814c-35.0591,0-39.5947,37.1191,11.4683,37.1191 C2812.1125,2697.8005,2787.9387,2660.6814,2750.9875,2660.6814z"/> <path d="M2771.7356,2567.8838c-38.8552,0-33.7476,37.1191-11.4683,37.1191 C2782.7341,2605.0029,2810.5688,2567.8838,2771.7356,2567.8838z"/> <path d="M1838.024,2462.793c-30.8909-12.4617-85.6362,9.3613-23.1993,9.3613 C1840.344,2472.1543,1850.7838,2467.9404,1838.024,2462.793z"/> <path d="M1935.4617,2382.2883c-67.5992,0-30.5345,37.1191,0,37.1191C1965.4966,2419.4075,2004.0469,2382.2883,1935.4617,2382.2883z "/> <path d="M2062.5261,2398.3604l0.0024-0.0068c-30.0416,17.4607-27.5155,19.9822,20.4829,20.4829 c39.9238,0.4124,49.2036-4.9819,34.2668-19.9189C2102.5974,2384.2434,2087.085,2384.085,2062.5261,2398.3604z"/> <path d="M2264.8936,2407.1145c-30.8909-12.4617-85.6362,9.3613-23.1992,9.3613 C2267.2136,2416.4758,2277.6533,2412.2617,2264.8936,2407.1145z"/> <path d="M1814.8247,2382.2883c0-24.5122-74.2383-24.5227-74.2383,0C1740.5864,2406.8005,1814.8247,2406.8108,1814.8247,2382.2883z"/> <path d="M1639.6033,2345.1692c-36.7871,0-61.34,37.1191-11.4684,37.1191 C1677.9857,2382.2883,1675.2026,2345.1692,1639.6033,2345.1692z"/> <path d="M1508.4744,2319.8516c-36.7454-14.0986-69.954,2.0298-54.7679,26.5999l0.0023-0.0044 c13.1018,21.2056,28.8248,21.4663,61.0797,1.0217C1534.5193,2334.9604,1533.2371,2329.3533,1508.4744,2319.8516z"/> <path d="M2056.0989,2326.6096c0-24.5122-74.2383-24.5225-74.2383,0C1981.8606,2351.1218,2056.0989,2351.1323,2056.0989,2326.6096z"/> <path d="M2167.4561,2308.05c-49.0503,0-49.1414,37.1191,0,37.1191C2216.5063,2345.1692,2216.5974,2308.05,2167.4561,2308.05z"/> <path d="M1916.9022,2308.05c15.574-25.1958-102.0775-24.2393-102.0775,0 C1814.8247,2332.3103,1901.7039,2332.6404,1916.9022,2308.05z"/> <path d="M1369.3955,2289.4905c-35.984-23.2537-55.6786-23.2537-55.6786,0c0,10.2087,18.7928,18.4622,41.7589,18.2764 C1389.2441,2307.5359,1391.9086,2304.04,1369.3955,2289.4905z"/> <path d="M1693.0934,2270.9309c-63.3884,0-36.4899,37.1191,11.4683,37.1191 C1752.4438,2308.05,1756.5613,2270.9309,1693.0934,2270.9309z"/> <path d="M1503.0913,2242.4053c-10.2412,10.2412,15.3175,31.2524,15.3175,29.2485c34.7833,21.9985,50.2866,22.1482,63.5946,0.6116 C1594.3552,2252.2854,1520.978,2224.5186,1503.0913,2242.4053z"/> <path d="M1367.4177,2207.196c-16.3125,10.0774-6.5112,29.7517-6.5112,27.8936c13.5979,22.0056,58.8005,22.4202,72.2445,0.6685 C1445.5663,2215.6714,1391.623,2192.2341,1367.4177,2207.196z"/> <path d="M1898.3403,2234.4441c0,2.5637,40.1052,10.9258,54.4417-2.4355c27.3092-25.4536-0.9923-40.0645-48.4016-24.9893 C1863.0699,2220.1506,1862.8116,2221.324,1898.3403,2234.4441z"/> <path d="M2064.282,2252.3713c36.7871,0,61.342-37.1189,11.4707-37.1189 C2025.8964,2215.2524,2028.6787,2252.3713,2064.282,2252.3713z"/> <path d="M1229.1024,2159.5737c-32.835,0-35.4222,30.9136-3.5457,42.3481c0,1.8647,26.1616,6.6406,37.4227,0.2649 C1284.1738,2190.1792,1259.8439,2159.5737,1229.1024,2159.5737z"/> <path d="M1769.52,2215.2524c63.3884,0,36.4875-37.1191-11.4706-37.1191C1710.1631,2178.1333,1706.0466,2215.2524,1769.52,2215.2524 z"/> <path d="M1647.7865,2180.2969c0-21.3848-71.583-40.0349-82.9924-21.5706c-4.8369,7.8276-3.455,19.5701,3.0745,26.0972 C1585.6691,2202.6287,1647.7865,2199.1101,1647.7865,2180.2969z"/> <path d="M1471.4708,2141.0142c-15.1279-24.4849-64.9585-24.321-64.9585,0 C1406.5123,2165.769,1486.5774,2165.4561,1471.4708,2141.0142z"/> <path d="M1282.4838,2094.144c-31.7474,12.9297-31.5481,14.5698,3.3916,27.9797 C1379.5939,2158.0908,1347.3829,2067.7104,1282.4838,2094.144z"/> <path d="M1916.8999,2141.0164c30.0349,0,68.5852-37.1189,0-37.1189C1849.3007,2103.8975,1886.3654,2141.0164,1916.8999,2141.0164z"/> <path d="M1759.1438,2122.4568c49.0668,0,49.1158-37.1189,0-37.1189C1710.0856,2085.3379,1710.0167,2122.4568,1759.1438,2122.4568z"/> <path d="M1582.828,2085.3379c14.9415,24.1746,59.1904,24.3555,74.2383,0 C1672.389,2060.5525,1567.5128,2060.5476,1582.828,2085.3379z"/> <path d="M1452.9113,2048.2188c-15.3152,24.79,89.561,24.7854,74.2382,0 C1512.215,2024.0468,1467.9662,2023.8605,1452.9113,2048.2188z"/> <path d="M1321.9025,2020.9707c6.6554,0,49.3776,50.6855,74.1294,10.6346c11.432-18.4962-31.5594-39.3824-79.1953-38.474 C1290.13,1993.6389,1290.8279,1997.4655,1321.9025,2020.9707z"/> <path d="M1668.5436,2012.459c28.152,17.3973,58.5424,3.285,43.9113-20.3901c-5.5981-9.0555-23.1382-11.4933-38.9791-5.4147 C1650.981,1995.2882,1649.9003,2000.9363,1668.5436,2012.459z"/> <path d="M1545.709,1992.5378c61.4557,0,61.927-37.1191,0-37.1191C1484.2532,1955.4187,1483.782,1992.5378,1545.709,1992.5378z"/> <path d="M1377.9119,1954.184c15.6641,25.3427,65.7219,25.8411,65.7219,0.6503c0-22.2185-52.3506-46.0522-67.6183-30.7845 C1367.8357,1932.2328,1375.834,1954.184,1377.9119,1954.184z"/> <path d="M1443.6315,1881.1782c42.5564,0,49.829-28.272,11.0968-43.1342c-27.3092-10.4783-48.2159,1.5179-48.2159,27.6694 C1406.5123,1874.2184,1423.2186,1881.1782,1443.6315,1881.1782z"/> <path d="M3112.8987,2308.0479c-49.6567,0-25.4829,37.1191,11.4683,37.1191 C3159.426,2345.167,3163.9617,2308.0479,3112.8987,2308.0479z"/> <path d="M3140.738,2233.8096c-63.3921,0-36.5024,37.1191,11.4683,37.1191 C3200.0884,2270.9287,3204.2058,2233.8096,3140.738,2233.8096z"/> <path d="M3118.6306,2186.3005c133.6865-7.1841,144.9375-11.1851,69.5981-24.7581 C3043.9641,2135.5518,2932.3452,2196.3103,3118.6306,2186.3005z"/> <path d="M3067.5918,2103.8928c15.0352-24.3264-64.9585-24.8157-64.9585,0 C3002.6333,2128.1777,3052.4539,2128.3943,3067.5918,2103.8928z"/> <path d="M3207.885,2085.3333c-49.8508,0-47.3015,37.1191-11.4685,37.1191 C3233.2036,2122.4524,3257.7563,2085.3333,3207.885,2085.3333z"/> <path d="M2973.7021,1992.5355c-14.7126,0-26.7473,12.5286-26.7473,27.8394c0,31.2218,3.4119,32.4882,44.7766,16.6134 C3025.7058,2023.9521,3012.9644,1992.5355,2973.7021,1992.5355z"/> <path d="M3123.2705,2048.2141c61.4556,0,61.927-37.119,0-37.119C3061.8147,2011.0951,3061.3435,2048.2141,3123.2705,2048.2141z"/> <path d="M3271.0898,2006.4258c-46.3718-8.8652-74.0842,7.2589-51.4216,29.9191c17.4834,17.4835,76.1436,14.434,87.8882-4.5696 C3313.1433,2022.7333,3296.7336,2011.3285,3271.0898,2006.4258z"/> <path d="M2843.7852,1992.5355c-35.0591,0-39.5945,37.1191,11.4683,37.1191 C2904.8972,2029.6547,2880.7461,1992.5355,2843.7852,1992.5355z"/> <path d="M2919.1155,1918.2974c-48.2295,0-63.658,28.0048-23.1995,42.1191v-0.0022 C2949.9954,1979.2767,3008.7588,1918.2974,2919.1155,1918.2974z"/> <path d="M3095.4128,1934.6865c0-21.097-68.9231-21.455-81.9185-0.4259c-10.6753,17.3362,1.8674,25.8229-0.0203,25.8229 C3028.0303,1974.6398,3095.4128,1953.7535,3095.4128,1934.6865z"/> <path d="M3233.427,1934.9063c-13.4622-21.7858-77.1631-21.4073-90.7271,0.5392 C3121.7173,1969.3976,3257.9568,1974.5952,3233.427,1934.9063z"/> <path d="M3318.1479,1918.2997c-49.1621,0-49.1741,55.6786,0,55.6786C3367.3132,1973.9783,3367.3186,1918.2997,3318.1479,1918.2997z "/> <path d="M3072.2429,1848.7013c14.3633-43.1261-116.1914-20.2946-74.6482,21.2533 C3016.2676,1888.6274,3063.4187,1875.204,3072.2429,1848.7013z"/> <path d="M3160.3918,1862.621c15.1313,24.4821,64.9583,24.3162,64.9583,0 C3225.3501,1837.8643,3145.2864,1838.1813,3160.3918,1862.621z"/> <path d="M3364.4402,1837.3101c-35.438-13.598-86.4087,5.4509-72.9285,27.2571c5.6458,9.137,25.9861,16.6134,45.1958,16.6134 C3381.6042,1881.1805,3400.5715,1851.1753,3364.4402,1837.3101z"/> <path d="M2749.9294,1819.616c-22.4949,8.634-23.5754,14.2821-4.9321,25.8048c28.1519,17.3973,58.5422,3.285,43.9114-20.3901 C2783.3125,1815.9752,2765.7703,1813.5375,2749.9294,1819.616z"/> <path d="M2900.5559,1825.5065c-30.0325,0-68.5796,37.119,0,37.119C2968.155,1862.6255,2931.0903,1825.5065,2900.5559,1825.5065z"/> <path d="M2877.4675,1746.6692c-22.3997,8.2762-12.8232,26.9542-12.8232,25.0979c13.3601,21.6227,58.6125,21.3961,72.0564-0.3534 C2949.252,1751.1051,2910.0032,1734.7069,2877.4675,1746.6692z"/> <path d="M3067.5918,1751.2682c-61.4558,0-61.927,37.1191,0,37.1191C3129.0476,1788.3873,3129.5188,1751.2682,3067.5918,1751.2682z"/> <path d="M3249.4106,1767.8975c-25.4219-25.4099-54.7522,1.4889-54.7522-0.5641c-30.0391,17.4608-27.5129,19.9823,20.4832,20.483 C3255.0676,1788.2288,3264.3474,1782.8345,3249.4106,1767.8975z"/> <path d="M3364.5444,1751.2682c-61.4556,0-61.927,37.1191,0,37.1191C3426.0002,1788.3873,3426.4714,1751.2682,3364.5444,1751.2682z"/> <path d="M2761.3591,1751.2682c0-24.5122-74.238-24.5231-74.238,0C2687.1211,1775.782,2761.3591,1775.7871,2761.3591,1751.2682z"/> <path d="M3067.5918,1677.03c-61.4558,0-61.927,37.1191,0,37.1191C3129.0476,1714.1492,3129.5188,1677.03,3067.5918,1677.03z"/> <path d="M3262.467,1695.5896c0-24.5123-74.2383-24.5231-74.2383,0C3188.2288,1720.1034,3262.467,1720.1084,3262.467,1695.5896z"/> <path d="M3373.8242,1677.03c-49.0581,0-49.127,37.1191,0,37.1191C3422.8911,1714.1492,3422.9402,1677.03,3373.8242,1677.03z"/> <path d="M2790.2952,1658.4705c-61.6978,0-59.8804,37.1191-11.4683,37.1191 C2827.1833,1695.5896,2853.354,1658.4705,2790.2952,1658.4705z"/> <path d="M2956.2344,1677.03c-15.2446-24.6741-83.5178-24.089-83.5178,0C2872.7166,1701.5857,2971.5242,1701.7693,2956.2344,1677.03 z"/> <path d="M3002.6333,1602.7919c0-24.5121-92.7976-24.5226-92.7976,0C2909.8357,1627.304,3002.6333,1627.3145,3002.6333,1602.7919z"/> <path d="M3125.4634,1584.2323c-61.9241,0-84.4063,37.1191-22.9412,37.1191 C3164.5649,1621.3514,3186.8174,1584.2323,3125.4634,1584.2323z"/> <path d="M3318.1458,1602.7919c0-24.5121-92.7979-24.5226-92.7979,0C3225.3479,1627.304,3318.1458,1627.3145,3318.1458,1602.7919z"/> <path d="M3409.8513,1584.2323c-47.8862,0-52.0051,37.1191,11.4683,37.1191 C3484.708,1621.3514,3457.8093,1584.2323,3409.8513,1584.2323z"/> <path d="M2844.8772,1584.2323c-15.2446-24.6741-83.5181-24.089-83.5181,0 C2761.3591,1608.788,2860.167,1608.9716,2844.8772,1584.2323z"/> <path d="M2612.8828,1547.1133c-49.0581,0-49.127,37.119,0,37.119C2661.9497,1584.2323,2661.9988,1547.1133,2612.8828,1547.1133z"/> <path d="M2752.8723,1529.8314c13.5981,22.0055,58.8008,22.4202,72.2446,0.6683c12.4153-20.0865-41.5278-43.5238-65.7332-28.562 C2743.0713,1512.0153,2752.8723,1531.6895,2752.8723,1529.8314z"/> <path d="M2956.2344,1547.1155c61.4558,0,61.9272-37.119,0-37.119C2894.7788,1509.9965,2894.3074,1547.1155,2956.2344,1547.1155z"/> <path d="M3103.6189,1547.1155c61.687,0,59.8718-37.119,11.4683-37.119C3066.5503,1509.9965,3040.791,1547.1155,3103.6189,1547.1155 z"/> <path d="M3327.4253,1528.5559c-15.2446-24.6741-83.5178-24.089-83.5178,0 C3243.9075,1553.1117,3342.7151,1553.2953,3327.4253,1528.5559z"/> <path d="M3438.7827,1509.9965c-61.4558,0-61.927,37.119,0,37.119C3500.2385,1547.1155,3500.7097,1509.9965,3438.7827,1509.9965z"/> <path d="M2696.4009,1509.9965c-15.1936-24.5913-107.9109-24.459-92.7979,0 C2618.802,1534.5874,2711.519,1534.4551,2696.4009,1509.9965z"/> <path d="M3039.7524,1454.3177c0-24.5509-98.8003-24.7445-83.5181,0C2971.4949,1479.0084,3039.7524,1478.3817,3039.7524,1454.3177z"/> <path d="M3197.5085,1454.3177c-15.1931-24.5907-102.0774-24.2589-102.0774,0 C3095.4312,1478.5621,3213.0764,1479.5035,3197.5085,1454.3177z"/> <path d="M3373.8242,1454.3177c0-24.259-86.8792-24.5902-102.0774,0C3256.1726,1479.5135,3373.8242,1478.5571,3373.8242,1454.3177z"/> <path d="M3476.9983,1435.7582c-61.6978,0-59.8801,37.1191-11.4683,37.1191 C3513.8865,1472.8773,3540.0574,1435.7582,3476.9983,1435.7582z"/> <path d="M2667.4695,1454.3177c48.3564,0,74.5273-37.119,11.4683-37.119C2617.24,1417.1987,2619.0576,1454.3177,2667.4695,1454.3177 z"/> <path d="M2881.9963,1435.7582c-15.2446-24.6741-83.5181-24.089-83.5181,0 C2798.4783,1460.314,2897.2859,1460.4974,2881.9963,1435.7582z"/> <path d="M2793.8474,1347.6003c14.3633-43.1261-116.1892-20.2946-74.646,21.2533 C2737.8743,1387.5265,2785.0254,1374.103,2793.8474,1347.6003z"/> <path d="M2899.4639,1380.0796c36.7871,0,61.3398-37.1191,11.4683-37.1191 C2861.0813,1342.9604,2863.6309,1380.0796,2899.4639,1380.0796z"/> <path d="M3068.6882,1380.0796c63.3884,0,36.4897-37.1191-11.4683-37.1191 C3009.3337,1342.9604,3005.2148,1380.0796,3068.6882,1380.0796z"/> <path d="M3243.9075,1361.52c0-24.5121-92.7979-24.5226-92.7979,0C3151.1096,1386.0322,3243.9075,1386.0426,3243.9075,1361.52z"/> <path d="M3392.3838,1361.52c0-24.0687-68.2595-24.6875-83.5178,0C3293.5872,1386.2589,3392.3838,1386.0828,3392.3838,1361.52z"/> <path d="M3495.5579,1342.9604c-61.6978,0-59.8804,37.1191-11.4683,37.1191 C3532.446,1380.0796,3558.6169,1342.9604,3495.5579,1342.9604z"/> <path d="M2631.4446,1344.5078c0-9.3545-10.4397-20.6528-23.1992-25.1047c-32.4543-11.321-71.4719,5.5122-59.1157,25.5035 C2549.1296,1360.2324,2631.4446,1371.5197,2631.4446,1344.5078z"/> <path d="M2872.7188,1287.2819c0,24.2874,49.8149,24.5013,64.9585,0C2952.7124,1262.9556,2872.7188,1262.4662,2872.7188,1287.2819z"/> <path d="M3058.3142,1305.8414c49.0503,0,49.1416-37.1191,0-37.1191C3009.2639,1268.7223,3009.1729,1305.8414,3058.3142,1305.8414z"/> <path d="M3206.7905,1268.7223c-49.05,0-49.1414,37.1191,0,37.1191C3255.8408,1305.8414,3255.9321,1268.7223,3206.7905,1268.7223z"/> <path d="M3365.6411,1268.7223c-36.7871,0-61.3398,37.1191-11.4685,37.1191 C3404.0234,1305.8414,3401.2405,1268.7223,3365.6411,1268.7223z"/> <path d="M3514.1174,1268.7223c-61.6924,0-59.876,37.1191-11.4683,37.1191 C3551.1694,1305.8414,3576.9634,1268.7223,3514.1174,1268.7223z"/> <path d="M2714.9626,1268.7223c15.2598,24.6896,83.5181,24.067,83.5181,0 C2798.4807,1244.1689,2699.675,1243.9778,2714.9626,1268.7223z"/> <path d="M2436.6895,1224.845c-39.2654,15.0704-8.7197,22.8107-6.314,27.6218c32.2549,20.4401,47.9778,20.1794,61.082-1.0217 C2506.6414,1226.8727,2473.4348,1210.7463,2436.6895,1224.845z"/> <path d="M2565.4102,1251.905c-16.5381,26.7571,153.4502,20.5947,47.4954-7.1162 C2592.4973,1239.4534,2571.1284,1242.6547,2565.4102,1251.905z"/> <path d="M2925.74,1215.0781c18.3738-11.6405,19.3887-19.5337,3.7517-29.1986c-26.5886-16.4323-75.3301,0.7679-75.3301,26.5819 C2854.1616,1235.611,2891.199,1236.9635,2925.74,1215.0781z"/> <polygon points="2854.1616,1212.4614 2854.1616,1212.4614 2854.1616,1212.4591 "/> <path d="M3057.22,1231.5964c48.5369,0,74.2961-37.1191,11.4683-37.1191C3007.0012,1194.4773,3008.8164,1231.5964,3057.22,1231.5964 z"/> <path d="M3262.4714,1213.0369c0-24.0709-68.2654-24.6865-83.5178,0C3163.6584,1237.7849,3262.4714,1237.5944,3262.4714,1213.0369z"/> <path d="M3355.2693,1194.4773c-49.0669,0-49.116,37.1191,0,37.1191C3404.3274,1231.5964,3404.3962,1194.4773,3355.2693,1194.4773z"/> <path d="M3517.6653,1194.7605c-88.2068-0.484-51.1843,66.3463,23.1995,18.2764 C3562.5576,1199.0153,3557.4351,1194.9825,3517.6653,1194.7605z"/> <path d="M2714.9648,1194.4773c14.9346,24.1719,59.1833,24.3583,74.2383,0 C2804.5183,1169.6871,2699.6421,1169.6918,2714.9648,1194.4773z"/> <path d="M2631.4446,1175.9177c0-24.5121-92.7976-24.5226-92.7976,0C2538.647,1200.4299,2631.4446,1200.4404,2631.4446,1175.9177z"/> <path d="M2482.9683,1157.3583c0-24.5122-92.7976-24.5227-92.7976,0C2390.1707,1181.8704,2482.9683,1181.8809,2482.9683,1157.3583z"/> <path d="M2260.2537,1120.2391c-21.6201,0-34.1489,8.3508-27.8391,18.5596c6.3096,10.2086,18.8359,18.5596,27.8391,18.5596 C2278.7288,1157.3583,2314.8967,1120.2391,2260.2537,1120.2391z"/> <path d="M3197.4292,1138.6129c0,10.0044,52.8848,34.8118,73.5291,1.4137c5.8726-9.5018,1.7876-22.7712-9.0757-29.4841 C3234.417,1093.5665,3183.3396,1115.8123,3197.4292,1138.6129z"/> <path d="M3419.4348,1140.0266c5.8723-9.5018,2.9429-22.0576-6.5112-27.8982c-24.2056-14.9596-78.1487,8.4778-65.7334,28.562 C3347.1902,1151.0719,3400.0723,1171.351,3419.4348,1140.0266z"/> <path d="M2863.4414,1120.2482c15.0247,24.3181,77.7498,24.3466,92.7976,0 C2971.6699,1095.2751,2848.0061,1095.277,2863.4414,1120.2482z"/> <path d="M3021.1975,1120.2482c0,24.5122,92.7976,24.5226,92.7976,0C3113.9951,1095.7361,3021.1975,1095.7256,3021.1975,1120.2482z"/> <path d="M3540.8647,1101.6886c-49.0669,0-49.116,37.1191,0,37.1191C3589.9229,1138.8077,3589.9917,1101.6886,3540.8647,1101.6886z"/> <path d="M2621.1863,1103.2745c12.8616-20.807-27.0261-36.598-60.894-24.1079c-34.553,12.7393,0,20.8397,0,24.8307 C2592.4338,1124.3647,2608.2656,1124.179,2621.1863,1103.2745z"/> <path d="M2714.9648,1101.6886c-15.3188,24.7877,89.5522,24.7882,74.2383,0 C2774.2617,1077.514,2730.0127,1077.3333,2714.9648,1101.6886z"/> <path d="M2446.1528,1055.4778c-24.7197-15.2789-59.6321,6.7242-45.9072,28.9336 C2427.8301,1129.0619,2479.0515,1075.8087,2446.1528,1055.4778z"/> <path d="M2278.8157,1027.4504c-49.0669,0-49.116,37.1191,0,37.1191C2327.8738,1064.5696,2327.9426,1027.4504,2278.8157,1027.4504z"/> <path d="M2900.5603,1046.01c15.1311,24.4902,64.9585,24.316,64.9585,0C2965.5188,1021.2551,2885.4539,1021.5682,2900.5603,1046.01z "/> <path d="M3104.7153,1024.6683c-22.5391,0-41.7803,39.9012,0,39.9012C3146.8508,1064.5696,3126.6426,1024.6683,3104.7153,1024.6683z "/> <path d="M3270.6548,1064.5696c38.8552,0,33.7498-37.1191,11.4705-37.1191 C3259.6616,1027.4504,3231.8271,1064.5696,3270.6548,1064.5696z"/> <path d="M3466.6265,1046.01c0-24.5122-74.238-24.5226-74.238,0C3392.3884,1070.5223,3466.6265,1070.5331,3466.6265,1046.01z"/> <path d="M3569.7983,1027.4504c-61.6924,0-59.8784,37.1191-11.4707,37.1191 C3606.8689,1064.5696,3632.6174,1027.4504,3569.7983,1027.4504z"/> <path d="M2483.9492,999.6111c-1.4543-27.5493-42.9778-22.488-52.6086,6.4116 C2419.4512,1041.6854,2485.1604,1022.5406,2483.9492,999.6111z"/> <path d="M2640.7268,1008.8909c-50.6946-21.7834-64.9585-21.7834-64.9585,0c0,10.2064,22.9661,17.9772,51.0388,17.2546 C2672.0325,1024.9901,2673.6182,1023.0258,2640.7268,1008.8909z"/> <path d="M3305.2705,997.0239c19.7646-19.7626-5.0046-42.9053-34.0085-31.7746 C3227.1973,982.1581,3272.5759,1029.7229,3305.2705,997.0239z"/> <path d="M3402.4612,991.6091c27.551,44.5792,78.8652-8.5658,45.9072-28.9336 C3423.6487,947.3965,3388.7363,969.3998,3402.4612,991.6091z"/> <path d="M3579.0781,953.2078c-38.739,0-63.2456,24.459-43.8955,43.8093v-0.0091c14.5088,14.5178,14.3298,14.5155,50.563,0.6117 C3626.7434,981.8876,3622.4387,953.2078,3579.0781,953.2078z"/> <path d="M2328.0645,969.2865c-24.5586-14.2822-40.0688-14.1235-54.7498,0.5573c0,2.3652-30.4404,20.5866,34.269,19.9257 C2355.5776,989.2734,2358.106,986.7473,2328.0645,969.2865z"/> <path d="M2984.0784,971.7719c0-24.285-49.8206-24.5014-64.9585,0C2904.0847,996.0981,2984.0784,996.5875,2984.0784,971.7719z"/> <path d="M3169.6738,971.7719c0-24.0812-31.1604-24.6641-46.3989,0C3108.1221,996.2886,3169.6738,996.538,3169.6738,971.7719z"/> <path d="M2108.0664,949.5013c-17.3203,17.3203-12.3723,22.2706,22.2727,22.2706c34.6453,0,39.5933-4.9481,22.2708-22.2706 C2135.2871,932.1787,2125.3867,932.1787,2108.0664,949.5013z"/> <path d="M2621.0706,971.7719c36.8948,0,61.1899-37.1191,11.4707-37.1191C2582.458,934.6527,2585.6287,971.7719,2621.0706,971.7719z "/> <path d="M2427.292,934.6527c35.9817,23.2538,55.6787,23.2538,55.6787,0c0-10.2086-18.793-18.4621-41.759-18.2763 C2407.4434,916.6075,2404.7766,920.1033,2427.292,934.6527z"/> <path d="M3058.3164,927.3599c0,43.5753,39.4929,7.2928,75.7563,7.2928c19.1228,0,35.5405-37.1191-29.3574-37.1191 C3074.4724,897.5336,3058.3164,907.919,3058.3164,927.3599z"/> <path d="M2315.9346,916.0932c21.6135-13.9695,16.1853-18.0543-24.2959-18.2764c-30.0867-0.1631-47.2825,7.5648-40.6624,18.2764 C2265.2175,939.1363,2280.2747,939.1363,2315.9346,916.0932z"/> <path d="M2937.9695,916.5576c12.3191,19.9321,75.4727,2.9139,48.9727-23.5914 C2965.6887,871.713,2922.9714,892.2911,2937.9695,916.5576z"/> <path d="M3438.7871,897.5336c-36.7854,0-36.8601,37.1191,0,37.1191C3475.5933,934.6527,3475.6116,897.5336,3438.7871,897.5336z"/> <path d="M3610.8481,901.0135c11.4314-34.2816-108.6812-29.7983-57.2236,21.6543 C3570.8201,939.8613,3601.8086,928.1347,3610.8481,901.0135z"/> <path d="M2778.8269,878.9741c-47.8823,0-51.9973,37.1191,11.4705,37.1191 C2853.6858,916.0932,2826.7974,878.9741,2778.8269,878.9741z"/> <path d="M2148.8987,878.9741c0-24.5411-55.6785-24.5425-55.6785,0C2093.2202,903.5152,2148.8987,903.5166,2148.8987,878.9741z"/> <path d="M2622.1672,860.4146c-36.7856,0-36.8604,37.1191,0,37.1191C2658.9731,897.5336,2658.9915,860.4146,2622.1672,860.4146z"/> <path d="M2436.5718,878.9741c61.4556,0,61.927-37.1191,0-37.1191C2375.116,841.855,2374.6448,878.9741,2436.5718,878.9741z"/> <path d="M2241.6965,834.3129v-0.0023c0,28.6798,47.45,35.8753,63.6533,9.6536 C2317.5293,824.2592,2241.6965,796.2333,2241.6965,834.3129z"/> <path d="M2919.1199,804.7359c-48.2339,0-63.6602,28.0047-23.1995,42.1192v-0.0023 C2950.1196,865.7586,3008.6702,804.7359,2919.1199,804.7359z"/> <path d="M3087.25,823.2955c-61.6921,0-59.8782,37.1191-11.4705,37.1191C3124.3208,860.4146,3150.0693,823.2955,3087.25,823.2955z"/> <path d="M3428.4109,860.4146c22.4668,0,50.3037-37.1191,11.4707-37.1191C3400.2844,823.2955,3406.6853,860.4146,3428.4109,860.4146 z"/> <path d="M2770.6436,841.855c30.0349,0,68.5852-37.1191,0-37.1191C2703.0444,804.7359,2740.1089,841.855,2770.6436,841.855z"/> <path d="M3597.6377,804.7359c-48.3564,0-74.5295,37.1191-11.4707,37.1191C3647.8647,841.855,3646.0496,804.7359,3597.6377,804.7359 z"/> <path d="M2139.6189,804.7359c-15.1313-24.4821-64.9583-24.3161-64.9583,0 C2074.6606,829.5262,2154.6794,829.1116,2139.6189,804.7359z"/> <path d="M2612.8875,786.1764c-49.0669,0-49.116,37.1191,0,37.1191C2661.9377,823.2955,2662.0288,786.1764,2612.8875,786.1764z"/> <path d="M1982.9572,767.6168c-50.0831,0-46.9126,37.1191-11.4706,37.1191 C2008.3811,804.7359,2032.6764,767.6168,1982.9572,767.6168z"/> <path d="M2390.1729,786.1764c0,24.5121,92.7979,24.5226,92.7979,0C2482.9707,761.6642,2390.1729,761.6537,2390.1729,786.1764z"/> <path d="M2976.3979,746.4677c-13.335,21.5833,7.6279,43.7007,40.7078,31.0066c37.6089-14.432,59.7703-4.2501,59.7703-28.4171 C3076.876,726.4016,2990.1819,724.1655,2976.3979,746.4677z"/> <path d="M3153.3118,768.9761c28.1499,17.3973,58.5425,3.2851,43.9092-20.3901c-5.5984-9.0555-23.1384-11.4933-38.9792-5.4147 C3135.7446,751.8054,3134.6663,757.4535,3153.3118,768.9761z"/> <path d="M3494.4658,756.8237c0-19.5475-64.9583-40.4501-64.9583-1.4885C3429.5076,793.3597,3494.4658,776.9423,3494.4658,756.8237z "/> <path d="M2297.3752,749.0573c0-23.2538-19.697-23.2538-55.6787,0c-22.5154,14.5495-19.8486,18.0543,13.9197,18.2764 C2278.5823,767.4877,2297.3752,759.2659,2297.3752,749.0573z"/> <path d="M2826.3223,749.0573c15.2468,24.6778,83.5178,24.0828,83.5178,0C2909.8401,724.5016,2811.0325,724.318,2826.3223,749.0573z "/> <path d="M3606.9175,730.4977c-61.6924,0-59.8784,37.1191-11.4707,37.1191C3643.988,767.6168,3669.7366,730.4977,3606.9175,730.4977 z"/> <path d="M2093.2202,730.4977c0,24.5411,55.6785,24.5425,55.6785,0C2148.8987,705.9567,2093.2202,705.9552,2093.2202,730.4977z"/> <path d="M2538.6492,730.4977c0,24.2874,49.8269,24.4821,64.9585,0C2618.6489,706.153,2538.6492,705.7032,2538.6492,730.4977z"/> <path d="M2696.4053,730.4977c-15.0352,24.3263,64.9585,24.8157,64.9585,0 C2761.3638,706.2127,2711.5435,705.9963,2696.4053,730.4977z"/> <path d="M2000.4224,711.9382c0-24.7549-80.0651-24.4418-64.9584,0C1950.5918,736.4232,2000.4224,736.2593,2000.4224,711.9382z"/> <path d="M2436.5718,693.3786c-14.9417-24.1746-59.1904-24.3554-74.2383,0C2347.0107,718.164,2451.887,718.1689,2436.5718,693.3786z "/> <path d="M3164.6306,700.7123c18.6775,18.6729,65.824,5.2493,74.6506-21.2533 C3253.634,636.342,3123.0657,659.1426,3164.6306,700.7123z"/> <path d="M3392.3657,672.6555c0-21.097-68.9231-21.455-81.9185-0.4259c-10.6689,17.3403,1.8696,25.8229-0.0181,25.8229 C3324.9832,712.6088,3392.3657,691.7225,3392.3657,672.6555z"/> <path d="M3330.4458,861.2955c0-21.097-68.9233-21.455-81.9185-0.4259c-10.6689,17.3403,1.8696,25.8229-0.0183,25.8229 C3263.0632,901.2488,3330.4458,880.3625,3330.4458,861.2955z"/> <path d="M2297.3752,674.8191c0-24.5121-92.7979-24.5226-92.7979,0C2204.5774,699.3312,2297.3752,699.3417,2297.3752,674.8191z"/> <path d="M2844.8818,674.8191c15.2468,24.6778,83.5178,24.0828,83.5178,0C2928.3997,650.2634,2829.592,650.0798,2844.8818,674.8191z "/> <path d="M3002.6379,674.8191c0,24.0693,68.2595,24.6875,83.5178,0C3101.4402,650.0798,3002.6379,650.2568,3002.6379,674.8191z"/> <path d="M3540.8647,674.8191c0-24.0687-68.2649-24.6875-83.5181,0C3442.0518,699.5671,3540.8647,699.3765,3540.8647,674.8191z"/> <path d="M3596.5435,675.9133c0-0.0023,0-0.0021,0-0.0045V675.9133z"/> <path d="M3613.4265,648.0151c-9.2844,5.7387-16.8831,18.2945-16.8831,27.8959c0.0044,22.2434,68.6558,22.9503,82.3125,0.8519 C3691.1853,656.8192,3637.4097,633.1915,3613.4265,648.0151z"/> <path d="M2126.0483,661.0557c22.6736-8.702,22.1865-12.9727-3.1062-27.1256c-37.0896-20.7572-82.4327,1.2234-47.3074,22.9321 C2088.5576,664.8483,2111.2449,666.7355,2126.0483,661.0557z"/> <path d="M2576.2871,657.048c0-7.8854,38.9016,40.6101,63.6467,0.5687c15.2722-24.7106-23.22-43.8411-59.8972-29.7673 C2553.2983,638.11,2552.7773,642.179,2576.2871,657.048z"/> <path d="M2752.084,674.81c36.8059,0,36.8245-37.1191,0-37.1191C2715.2983,637.6909,2715.2239,674.81,2752.084,674.81z"/> <path d="M1991.1426,619.1314c-15.2604-24.6907-83.5179-24.0639-83.5179,0 C1907.6246,643.6847,2006.4302,643.8759,1991.1426,619.1314z"/> <path d="M2399.4526,619.1314c-15.3228,24.7853,89.5535,24.7902,74.2383,0 C2458.7493,594.9567,2414.5005,594.7759,2399.4526,619.1314z"/> <path d="M2325.2144,600.5718c-15.2603-24.6907-83.5178-24.0639-83.5178,0C2241.6965,625.1252,2340.502,625.3164,2325.2144,600.5718 z"/> <path d="M3076.876,582.0123c-49.0667,0-49.1157,37.1191,0,37.1191C3125.9263,619.1314,3126.0176,582.0123,3076.876,582.0123z"/> <path d="M3169.6738,600.5718c0,24.5123,74.238,24.5231,74.238,0C3243.9119,576.0596,3169.6738,576.0493,3169.6738,600.5718z"/> <path d="M3364.5491,582.0123c-61.4558,0-61.927,37.1191,0,37.1191C3426.0049,619.1314,3426.4761,582.0123,3364.5491,582.0123z"/> <path d="M3559.4243,600.5718c0-24.7549-80.0652-24.4418-64.9585,0C3509.5969,625.062,3559.4243,624.8878,3559.4243,600.5718z"/> <path d="M3642.9014,575.3243c-23.0361,8.838-25.0322,15.4942-7.8389,26.1198c26.6816,16.4911,72.8381,2.9249,72.8381-21.4097 C3707.9006,560.4962,3685.7253,558.8899,3642.9014,575.3243z"/> <path d="M2770.6436,563.4528c-67.5991,0-30.5347,37.1191,0,37.1191C2800.6785,600.5718,2839.2288,563.4528,2770.6436,563.4528z"/> <path d="M2906.127,578.3013c-17.3203,17.3203-12.3723,22.2706,22.2727,22.2706s39.593-4.948,22.2705-22.2706 C2933.3477,560.9788,2923.4473,560.9788,2906.127,578.3013z"/> <path d="M2158.1785,563.4528c-15.2605-24.6907-83.5178-24.0639-83.5178,0 C2074.6606,588.0061,2173.4661,588.1973,2158.1785,563.4528z"/> <path d="M2612.8875,544.8932c-49.0669,0-49.116,37.1191,0,37.1191C2661.9377,582.0123,2662.0288,544.8932,2612.8875,544.8932z"/> <path d="M1971.4866,526.3337c-35.1331,0-39.496,37.1191,11.4706,37.1191C2032.6886,563.4528,2008.3624,526.3337,1971.4866,526.3337 z"/> <path d="M2482.9707,544.8932c0-24.5411-55.6787-24.5425-55.6787,0C2427.292,569.4343,2482.9707,569.4357,2482.9707,544.8932z"/> <path d="M3097.1077,499.532c-23.9834-14.8236-77.7566,8.804-65.4297,28.7478c0,16.1373,82.3171,26.2361,82.3171-0.8496 C3113.9951,517.8264,3106.3965,505.2707,3097.1077,499.532z"/> <path d="M2339.134,514.0429c-30.8909-12.4616-85.6362,9.3614-23.1995,9.3614 C2341.4541,523.4043,2351.8938,519.1903,2339.134,514.0429z"/> <path d="M2891.2805,507.7764c0,24.5123,74.2383,24.5231,74.2383,0C2965.5188,483.2642,2891.2805,483.2538,2891.2805,507.7764z"/> <path d="M3278.6406,771.2964c0,24.5123,74.2383,24.5231,74.2383,0C3352.8789,746.7842,3278.6406,746.7737,3278.6406,771.2964z"/> <path d="M3364.5491,507.7764c-15.0352,24.3263,64.9585,24.8157,64.9585,0C3429.5076,483.4914,3379.687,483.275,3364.5491,507.7764z "/> <path d="M3522.3052,507.7764c0,24.2874,49.8269,24.4821,64.9585,0C3602.3047,483.4317,3522.3052,482.9819,3522.3052,507.7764z"/> <path d="M3674.9004,504.6974c2.8098,0-17.1357,26.0193,35.5718,18.5596c24.1055-3.4097,41.7385-14.5518,39.1875-24.7604 C3742.8086,471.0991,3684.4883,475.9383,3674.9004,504.6974z"/> <path d="M2147.8022,470.6573c-47.8823,0-51.9973,37.1191,11.4705,37.1191 C2222.7581,507.7764,2195.6638,470.6573,2147.8022,470.6573z"/> <path d="M2574.6038,488.4941c34.3643,21.2375,84.2158,2.107,59.3352-22.7712c-10.2063-10.2064-33.501-12.8231-51.7637-5.8157 C2555.3193,470.2132,2553.8694,475.6801,2574.6038,488.4941z"/> <path d="M2761.3638,470.6573c-49.0669,0-49.116,37.1191,0,37.1191C2810.4141,507.7764,2810.5051,470.6573,2761.3638,470.6573z"/> <path d="M1999.3258,452.0977c-49.6466,0-25.4902,37.1191,11.4706,37.1191 C2045.8556,489.2168,2050.3887,452.0977,1999.3258,452.0977z"/> <path d="M2492.2502,452.0977c-15.2603-24.6907-83.5178-24.0639-83.5178,0 C2408.7324,476.6511,2507.5381,476.8423,2492.2502,452.0977z"/> <path d="M2241.6965,433.5382c0,24.5533,98.8054,24.7445,83.5178,0C2309.9541,408.8475,2241.6965,409.4743,2241.6965,433.5382z"/> <path d="M2996.4529,439.7164c15.0615,15.0706,14.7148,15.0638,51.0659,1.1147c45.1824-17.3384,34.7925-44.412-17.0415-44.412 C2953.6392,396.4191,2995.8333,441.5755,2996.4529,439.7164z"/> <path d="M3188.2334,452.0977c18.8821,0,54.6372-37.1191,0-37.1191c-21.6204,0-34.1489,8.3509-27.8394,18.5595 C3166.7014,443.7469,3179.23,452.0977,3188.2334,452.0977z"/> <path d="M3318.1501,433.5382c0,23.2538,19.6946,23.2538,55.6787,0c22.5107-14.5495,19.8464-18.0543-13.9197-18.2763 C3336.9409,415.1078,3318.1501,423.3295,3318.1501,433.5382z"/> <path d="M3506.6094,410.4113c-21.2534-21.2533-63.9707-0.6751-48.9727,23.5914 C3469.9561,453.9347,3533.1096,436.9165,3506.6094,410.4113z"/> <path d="M2121.1772,389.6541c-24.7627,9.5041-26.0449,15.1091-6.3142,27.6173c33.168,21.0245,71.1548,20.3811,71.1548-1.2053 C2186.0178,388.9676,2155.4348,376.5093,2121.1772,389.6541z"/> <path d="M2678.9197,419.1405c14.9302,14.9301,82.4441-5.4555,82.4441-24.8918 C2761.3638,369.5004,2628.7839,369.0096,2678.9197,419.1405z"/> <path d="M2826.3223,414.9786c15.2468,24.6778,83.5178,24.0828,83.5178,0C2909.8401,390.4229,2811.0325,390.2393,2826.3223,414.9786 z"/> <path d="M3587.2637,414.9786c-14.7405,23.8493,58.6521,25.2173,74.238,0C3676.2393,391.1254,3602.8408,389.7664,3587.2637,414.9786 z"/> <path d="M3802.6763,388.3627c-24.2078-14.9596-78.1509,8.4778-65.7356,28.562c0,10.3815,52.8821,30.6605,72.2446-0.6638 C3815.0576,406.7592,3812.1282,394.2034,3802.6763,388.3627z"/> <path d="M2010.7964,359.3c-36.787,0-61.342,37.1191-11.4706,37.1191C2049.1821,396.4191,2046.3997,359.3,2010.7964,359.3z"/> <path d="M2594.3279,377.8596c0-24.5121-92.7979-24.5226-92.7979,0C2501.53,402.3717,2594.3279,402.3821,2594.3279,377.8596z"/> <path d="M2436.5718,359.3c-15.2605-24.6907-83.5181-24.0639-83.5181,0C2353.0537,383.8533,2451.8594,384.0445,2436.5718,359.3z"/> <path d="M2213.8572,340.7404c15.2471,24.6778,83.5181,24.0828,83.5181,0C2297.3752,316.1848,2198.5674,316.0012,2213.8572,340.7404 z"/> <path d="M2994.1511,342.0205c27.551,44.5792,78.8655-8.5658,45.9072-28.9336 C3015.3386,297.8079,2980.4263,319.8111,2994.1511,342.0205z"/> <path d="M3141.8345,340.7404c15.2471,24.6778,83.5181,24.0828,83.5181,0C3225.3525,316.1848,3126.5447,316.0012,3141.8345,340.7404 z"/> <path d="M3299.5906,340.7404c0,24.0693,68.2595,24.6875,83.5181,0C3398.3931,316.0012,3299.5906,316.1782,3299.5906,340.7404z"/> <path d="M3466.6265,340.7404c0,24.0693,68.2595,24.6875,83.5181,0C3565.429,316.0012,3466.6265,316.1782,3466.6265,340.7404z"/> <path d="M3661.5017,354.6624c46.2993,0,61.4922-20.9611,29.5115-40.7236C3656.4009,292.5414,3557.2266,354.6624,3661.5017,354.6624 z"/> <path d="M2807.7627,322.1809c-15.2952,24.748,83.5178,24.5574,83.5178,0C2891.2805,298.1122,2823.0156,297.4934,2807.7627,322.1809 z"/> <path d="M3799.8306,298.4695c-35.5215,9.2897-25.6665,27.8607-25.6665,25.8162c12.9907,21.0268,58.447,21.3326,71.3337,0.4826 C3860.6611,300.2321,3839.562,288.0773,3799.8306,298.4695z"/> <path d="M2121.0593,303.6214c-14.9414-24.1747-59.1902-24.3555-74.238,0C2031.4984,328.4067,2136.3748,328.4116,2121.0593,303.6214 z"/> <path d="M2650.0066,303.6214c0,24.5121,92.7976,24.5226,92.7976,0C2742.8042,279.1092,2650.0066,279.0988,2650.0066,303.6214z"/> <path d="M2520.0896,285.0618c0,24.5123,74.2383,24.5231,74.2383,0C2594.3279,260.5481,2520.0896,260.543,2520.0896,285.0618z"/> <path d="M2362.3335,266.5023c-15.3228,24.7854,89.5535,24.7903,74.2383,0 C2421.6301,242.3276,2377.3813,242.1468,2362.3335,266.5023z"/> <path d="M2986.9421,243.3753c-21.2534-21.2533-63.9707-0.6751-48.9727,23.5914 C2950.2886,286.8987,3013.4421,269.8806,2986.9421,243.3753z"/> <path d="M3151.1143,266.5023c22.5107-14.5495,19.8464-18.0543-13.9197-18.2763c-22.9683-0.1541-41.759,8.0677-41.759,18.2763 C3095.4355,289.7561,3115.1301,289.7561,3151.1143,266.5023z"/> <path d="M3299.5906,285.0618c18.8821,0,54.6372-37.1191,0-37.1191c-21.6204,0-34.1489,8.3509-27.8394,18.5595 C3278.0586,276.7109,3290.5872,285.0618,3299.5906,285.0618z"/> <path d="M3437.6907,285.0618c36.8945,0,61.1899-37.1191,11.4707-37.1191C3399.0781,247.9427,3402.2488,285.0618,3437.6907,285.0618 z"/> <path d="M3617.9666,243.3753c-21.2532-21.2533-63.9707-0.6751-48.9724,23.5914 C3581.3132,286.8987,3644.4668,269.8806,3617.9666,243.3753z"/> <path d="M2104.6748,234.3425c56.281,10.7571,71.4321-30.931-30.0437-37.8871c-63.8075-4.3748-74.2087,0.179-74.2087,32.4792 l-0.0022-0.0023c0,40.4653,27.0576,50.3024,47.4795,17.2614C2054.8027,235.029,2080.3516,229.6913,2104.6748,234.3425z"/> <path d="M2241.6965,266.5023c49.0581,0,49.127-37.1191,0-37.1191C2192.6296,229.3832,2192.5806,266.5023,2241.6965,266.5023z"/> <path d="M2841.2817,254.6352c19.7649-19.7626-5.0046-42.9054-34.0085-31.7746 C2763.2087,239.7694,2808.5872,287.3342,2841.2817,254.6352z"/> <path d="M3735.74,266.5023c36.8059,0,36.8242-37.1191,0-37.1191C3698.9543,229.3832,3698.8799,266.5023,3735.74,266.5023z"/> <path d="M2669.6604,247.9427c47.8862,0,52.0027-37.1191-11.4707-37.1191C2594.8013,210.8236,2621.7021,247.9427,2669.6604,247.9427 z"/> <path d="M3885.3105,210.8236c-61.6924,0-59.8782,37.1191-11.4705,37.1191 C3922.3813,247.9427,3948.1299,210.8236,3885.3105,210.8236z"/> <path d="M2547.929,210.8236c-15.5867-25.2187-88.9783-23.8486-74.238,0C2489.2742,236.046,2562.6638,234.6723,2547.929,210.8236z"/> <path d="M2408.7324,192.2641c0-24.7549-80.0649-24.4418-64.9585,0C2358.9019,216.7491,2408.7324,216.5853,2408.7324,192.2641z"/> <path d="M2246.3364,173.4213c33.7661-0.2311,36.4304-3.7269,13.9197-18.2764c-35.9841-23.2538-55.6787-23.2538-55.6787,0 C2204.5774,165.3537,2223.3679,173.6071,2246.3364,173.4213z"/> </g> </svg>